<svg width="512" height="512" viewBox="0 0 512 512" fill="none" xmlns="http://www.w3.org/2000/svg">
<path d="M256 512C397.385 512 512 397.385 512 256C512 114.615 397.385 0 256 0C114.615 0 0 114.615 0 256C0 397.385 114.615 512 256 512Z" fill="#F0F0F0"/>
<path d="M52.92 100.142C32.811 126.305 17.648 156.46 8.819 189.219H141.997L52.92 100.142Z" fill="#0052B4"/>
<path d="M503.181 189.219C494.352 156.461 479.188 126.306 459.08 100.143L370.005 189.219H503.181Z" fill="#0052B4"/>
<path d="M8.819 322.784C17.649 355.542 32.812 385.697 52.92 411.859L141.994 322.784H8.819Z" fill="#0052B4"/>
<path d="M411.858 52.921C385.695 32.812 355.541 17.649 322.782 8.819V141.996L411.858 52.921Z" fill="#0052B4"/>
<path d="M100.142 459.079C126.305 479.188 156.46 494.351 189.218 503.181V370.005L100.142 459.079Z" fill="#0052B4"/>
<path d="M189.217 8.819C156.459 17.649 126.304 32.812 100.142 52.92L189.217 141.995V8.819Z" fill="#0052B4"/>
<path d="M322.783 503.181C355.541 494.351 385.696 479.188 411.858 459.08L322.783 370.005V503.181Z" fill="#0052B4"/>
<path d="M370.005 322.784L459.08 411.86C479.188 385.698 494.352 355.542 503.181 322.784H370.005Z" fill="#0052B4"/>
<path d="M509.833 222.609H289.392V2.167C278.461 0.744 267.317 0 256 0C244.681 0 233.539 0.744 222.609 2.167V222.608H2.167C0.744 233.539 0 244.683 0 256C0 267.319 0.744 278.461 2.167 289.391H222.608V509.833C233.539 511.256 244.681 512 256 512C267.317 512 278.461 511.257 289.391 509.833V289.392H509.833C511.256 278.461 512 267.319 512 256C512 244.683 511.256 233.539 509.833 222.609Z" fill="#D80027"/>
<path d="M322.783 322.784L437.019 437.02C442.273 431.768 447.285 426.277 452.067 420.585L354.265 322.783H322.783V322.784Z" fill="#D80027"/>
<path d="M189.217 322.784H189.215L74.98 437.019C80.232 442.273 85.723 447.285 91.415 452.067L189.217 354.263V322.784Z" fill="#D80027"/>
<path d="M189.217 189.219V189.217L74.981 74.98C69.727 80.232 64.715 85.723 59.933 91.415L157.736 189.218L189.217 189.219Z" fill="#D80027"/>
<path d="M322.783 189.219L437.02 74.981C431.768 69.727 426.277 64.715 420.585 59.934L322.783 157.737V189.219Z" fill="#D80027"/>
<mask id="mask0_810_278" style="mask-type:alpha" maskUnits="userSpaceOnUse" x="0" y="0" width="512" height="512">
<path fill-rule="evenodd" clip-rule="evenodd" d="M0 256C0 397.385 114.615 512 256 512V0C114.615 0 0 114.615 0 256Z" fill="#D9D9D9"/>
</mask>
<g mask="url(#mask0_810_278)">
<path d="M256 512C397.385 512 512 397.385 512 256C512 114.615 397.385 0 256 0C114.615 0 0 114.615 0 256C0 397.385 114.615 512 256 512Z" fill="#F0F0F0"/>
<path d="M244.87 256H512C512 232.894 508.92 210.51 503.181 189.217H244.87V256Z" fill="#D80027"/>
<path d="M244.87 122.435H474.426C458.755 96.863 438.718 74.26 415.356 55.652H244.87V122.435Z" fill="#D80027"/>
<path d="M256 512C316.249 512 371.626 491.176 415.356 456.348H96.644C140.374 491.176 195.751 512 256 512Z" fill="#D80027"/>
<path d="M37.574 389.565H474.426C487.007 369.036 496.764 346.596 503.181 322.782H8.819C15.236 346.596 24.993 369.036 37.574 389.565Z" fill="#D80027"/>
<path d="M118.584 39.978H141.913L120.213 55.743L128.502 81.252L106.803 65.487L85.104 81.252L92.264 59.215C73.158 75.13 56.412 93.776 42.612 114.552H50.087L36.274 124.587C34.122 128.177 32.058 131.824 30.08 135.525L36.676 155.826L24.37 146.885C21.311 153.366 18.513 159.993 15.998 166.758L23.265 189.126H50.087L28.387 204.891L36.676 230.4L14.977 214.635L1.979 224.079C0.678 234.537 0 245.189 0 256H256C256 114.616 256 97.948 256 0C205.428 0 158.285 14.67 118.584 39.978ZM128.502 230.4L106.803 214.635L85.104 230.4L93.393 204.891L71.693 189.126H98.515L106.803 163.617L115.091 189.126H141.913L120.213 204.891L128.502 230.4ZM120.213 130.317L128.502 155.826L106.803 140.061L85.104 155.826L93.393 130.317L71.693 114.552H98.515L106.803 89.043L115.091 114.552H141.913L120.213 130.317ZM220.328 230.4L198.629 214.635L176.93 230.4L185.219 204.891L163.519 189.126H190.341L198.629 163.617L206.917 189.126H233.739L212.039 204.891L220.328 230.4ZM212.039 130.317L220.328 155.826L198.629 140.061L176.93 155.826L185.219 130.317L163.519 114.552H190.341L198.629 89.043L206.917 114.552H233.739L212.039 130.317ZM212.039 55.743L220.328 81.252L198.629 65.487L176.93 81.252L185.219 55.743L163.519 39.978H190.341L198.629 14.469L206.917 39.978H233.739L212.039 55.743Z" fill="#0052B4"/>
</g>
</svg>
