<svg width="40" height="40" viewBox="0 0 40 40" fill="none" xmlns="http://www.w3.org/2000/svg">
<path d="M20 3.75C16.7861 3.75 13.6443 4.70305 10.972 6.48862C8.29969 8.27419 6.21689 10.8121 4.98696 13.7814C3.75704 16.7507 3.43524 20.018 4.06225 23.1702C4.68926 26.3224 6.23692 29.2179 8.50952 31.4905C10.7821 33.7631 13.6776 35.3108 16.8298 35.9378C19.982 36.5648 23.2493 36.243 26.2186 35.013C29.1879 33.7831 31.7258 31.7003 33.5114 29.028C35.297 26.3557 36.25 23.2139 36.25 20C36.2417 15.6928 34.527 11.5643 31.4814 8.51864C28.4357 5.47296 24.3072 3.75826 20 3.75ZM27.4063 20.4844C27.3381 20.6358 27.2428 20.7735 27.125 20.8906L21.8281 26.1875C21.7147 26.3042 21.5785 26.3963 21.428 26.4581C21.2774 26.5199 21.1158 26.5501 20.9531 26.5469C20.7881 26.5504 20.624 26.5204 20.4709 26.4586C20.3178 26.3968 20.1789 26.3046 20.0625 26.1875C19.8287 25.9532 19.6975 25.6357 19.6975 25.3047C19.6975 24.9737 19.8287 24.6562 20.0625 24.4219L23.2344 21.25H13.75C13.4185 21.25 13.1005 21.1183 12.8661 20.8839C12.6317 20.6495 12.5 20.3315 12.5 20C12.5 19.6685 12.6317 19.3505 12.8661 19.1161C13.1005 18.8817 13.4185 18.75 13.75 18.75H23.2344L20.0625 15.5781C19.8471 15.3403 19.7313 15.0288 19.7392 14.708C19.7471 14.3873 19.878 14.0818 20.1049 13.8549C20.3318 13.628 20.6373 13.4971 20.9581 13.4892C21.2788 13.4813 21.5904 13.5971 21.8281 13.8125L27.125 19.1094C27.2428 19.2265 27.3381 19.3642 27.4063 19.5156C27.5314 19.8264 27.5314 20.1736 27.4063 20.4844Z" fill="white"/>
</svg>
