<svg width="24" height="26" viewBox="0 0 24 26" fill="none" xmlns="http://www.w3.org/2000/svg">
<path d="M19.0675 4.07333C18.0648 2.94612 17.5123 1.49851 17.5127 0H12.9801V17.9111C12.9452 18.8804 12.5296 19.7985 11.821 20.472C11.1124 21.1456 10.1659 21.5221 9.18104 21.5222C7.09813 21.5222 5.36726 19.8467 5.36726 17.7667C5.36726 15.2822 7.80221 13.4189 10.3105 14.1844V9.62C5.24992 8.95556 0.820068 12.8267 0.820068 17.7667C0.820068 22.5767 4.86854 26 9.16637 26C13.7722 26 17.5127 22.3167 17.5127 17.7667V8.68111C19.3506 9.98089 21.5573 10.6783 23.8201 10.6744V6.21111C23.8201 6.21111 21.0624 6.34111 19.0675 4.07333Z" fill="white"/>
</svg>
