<svg width="563" height="212" viewBox="0 0 563 212" fill="none" xmlns="http://www.w3.org/2000/svg">
<path d="M316.181 0.786209L105.394 0.786209V35.9174L316.181 35.9174V0.786209Z" fill="#E93737"/>
<path d="M562.1 0.786209L351.312 0.786209V35.9174L562.1 35.9174V0.786209Z" fill="#E93737"/>
<path d="M140.525 35.9187H105.394V71.05H140.525V35.9187Z" fill="#E93737"/>
<path d="M210.787 35.9187H140.525V71.05H210.787V35.9187Z" fill="white"/>
<path d="M281.05 35.9187H210.787V71.05H281.05V35.9187Z" fill="#101010"/>
<path d="M316.181 35.9187H281.05V71.05H316.181V35.9187Z" fill="#E93737"/>
<path d="M386.443 35.9187H351.312V71.05H386.443V35.9187Z" fill="#E93737"/>
<path d="M456.706 35.9187H386.444V71.05H456.706V35.9187Z" fill="white"/>
<path d="M526.968 35.9187H456.706V71.05H526.968V35.9187Z" fill="#101010"/>
<path d="M562.1 35.9187H526.969V71.05H562.1V35.9187Z" fill="#E93737"/>
<path d="M140.525 71.0474H0L0 106.179H140.525V71.0474Z" fill="#E93737"/>
<path d="M210.787 71.0474H140.525V106.179H210.787V71.0474Z" fill="white"/>
<path d="M281.05 71.0474H210.787V106.179H281.05V71.0474Z" fill="#101010"/>
<path d="M386.444 71.0474H281.05V106.179H386.444V71.0474Z" fill="#E93737"/>
<path d="M456.706 71.0474H386.444V106.179H456.706V71.0474Z" fill="white"/>
<path d="M526.968 71.0474H456.706V106.179H526.968V71.0474Z" fill="#101010"/>
<path d="M562.1 71.0474H526.969V106.179H562.1V71.0474Z" fill="#E93737"/>
<path d="M35.1312 106.18H0L0 141.311H35.1312V106.18Z" fill="#E93737"/>
<path d="M140.525 106.18H105.394V141.311H140.525V106.18Z" fill="#E93737"/>
<path d="M210.787 106.18H140.525V141.311H210.787V106.18Z" fill="white"/>
<path d="M281.05 106.18H210.787V141.311H281.05V106.18Z" fill="#101010"/>
<path d="M316.181 106.18H281.05V141.311H316.181V106.18Z" fill="#E93737"/>
<path d="M386.443 106.18H351.312V141.311H386.443V106.18Z" fill="#E93737"/>
<path d="M456.706 106.18H386.444V141.311H456.706V106.18Z" fill="white"/>
<path d="M526.968 106.18H456.706V141.311H526.968V106.18Z" fill="#101010"/>
<path d="M562.1 106.18H526.969V141.311H562.1V106.18Z" fill="#E93737"/>
<path d="M35.1312 141.312H0L0 176.444H35.1312V141.312Z" fill="#E93737"/>
<path d="M140.525 141.312H105.394V176.444H140.525V141.312Z" fill="#E93737"/>
<path d="M210.787 141.312H140.525V176.444H210.787V141.312Z" fill="white"/>
<path d="M281.05 141.312H210.787V176.444H281.05V141.312Z" fill="#101010"/>
<path d="M316.181 141.312H281.05V176.444H316.181V141.312Z" fill="#E93737"/>
<path d="M386.443 141.312H351.312V176.444H386.443V141.312Z" fill="#E93737"/>
<path d="M456.706 141.312H386.444V176.444H456.706V141.312Z" fill="white"/>
<path d="M526.968 141.312H456.706V176.444H526.968V141.312Z" fill="#101010"/>
<path d="M562.1 141.312H526.969V176.444H562.1V141.312Z" fill="#E93737"/>
<path d="M316.181 176.441H105.394V211.572H316.181V176.441Z" fill="#E93737"/>
<path d="M562.1 176.441H351.312V211.572H562.1V176.441Z" fill="#E93737"/>
</svg>
