<svg width="1440" height="1020" viewBox="0 0 1440 1020" fill="none" xmlns="http://www.w3.org/2000/svg">
<g clip-path="url(#clip0_855_2)">
<rect width="60" height="60" fill="black" fill-opacity="0.1"/>
<rect width="60" height="60" transform="translate(60 60)" fill="black" fill-opacity="0.05"/>
<rect width="60" height="60" transform="translate(180 120)" fill="black" fill-opacity="0.02"/>
<rect width="60" height="60" transform="translate(240 60)" fill="black" fill-opacity="0.02"/>
<rect width="60" height="60" transform="translate(120)" fill="black" fill-opacity="0.1"/>
<rect width="60" height="60" transform="translate(240)" fill="black" fill-opacity="0.05"/>
<rect width="60" height="60" transform="translate(60 240)" fill="black" fill-opacity="0.02"/>
<rect width="60" height="60" transform="translate(0 120)" fill="black" fill-opacity="0.1"/>
<rect width="60" height="60" transform="translate(0 240)" fill="black" fill-opacity="0.1"/>
<rect width="60" height="60" transform="translate(120 300)" fill="black" fill-opacity="0.02"/>
<rect width="60" height="60" transform="translate(240 300)" fill="black" fill-opacity="0.02"/>
<rect width="60" height="60" transform="translate(180 420)" fill="black" fill-opacity="0.02"/>
<rect width="60" height="60" transform="translate(120 600)" fill="black" fill-opacity="0.02"/>
<rect width="60" height="60" transform="translate(180 660)" fill="black" fill-opacity="0.02"/>
<rect width="60" height="60" transform="translate(360 840)" fill="black" fill-opacity="0.02"/>
<rect width="60" height="60" transform="translate(0 360)" fill="black" fill-opacity="0.05"/>
<rect width="60" height="60" transform="translate(0 540)" fill="black" fill-opacity="0.1"/>
<rect width="60" height="60" transform="translate(0 720)" fill="black" fill-opacity="0.05"/>
<rect width="60" height="60" transform="translate(60 780)" fill="black" fill-opacity="0.05"/>
<rect width="60" height="60" transform="translate(0 900)" fill="black" fill-opacity="0.1"/>
<rect width="60" height="60" transform="translate(60 840)" fill="black" fill-opacity="0.1"/>
<rect width="60" height="60" transform="translate(1320 360)" fill="black" fill-opacity="0.1"/>
<rect width="60" height="60" transform="translate(1320 540)" fill="black" fill-opacity="0.05"/>
<rect width="60" height="60" transform="translate(1380 480)" fill="black" fill-opacity="0.1"/>
<rect width="60" height="60" transform="translate(360 960)" fill="black" fill-opacity="0.05"/>
<rect width="60" height="60" transform="translate(300 960)" fill="black" fill-opacity="0.1"/>
<rect width="60" height="60" transform="translate(180 960)" fill="black" fill-opacity="0.05"/>
<rect width="60" height="60" transform="translate(240 900)" fill="black" fill-opacity="0.1"/>
<rect width="60" height="60" transform="translate(480 900)" fill="black" fill-opacity="0.02"/>
<rect width="60" height="60" transform="translate(720 60)" fill="black" fill-opacity="0.02"/>
<rect width="60" height="60" transform="translate(840)" fill="black" fill-opacity="0.1"/>
<rect width="60" height="60" transform="translate(840 60)" fill="black" fill-opacity="0.02"/>
<rect width="60" height="60" transform="translate(900 840)" fill="black" fill-opacity="0.02"/>
<rect width="60" height="60" transform="translate(540 960)" fill="black" fill-opacity="0.1"/>
<rect width="60" height="60" transform="translate(660 960)" fill="black" fill-opacity="0.1"/>
<rect width="60" height="60" transform="translate(720 900)" fill="black" fill-opacity="0.02"/>
<rect width="60" height="60" transform="translate(840 960)" fill="black" fill-opacity="0.05"/>
<rect width="60" height="60" transform="translate(960 960)" fill="black" fill-opacity="0.1"/>
<rect width="60" height="60" transform="translate(960 840)" fill="black" fill-opacity="0.02"/>
<rect width="60" height="60" transform="translate(1200 480)" fill="black" fill-opacity="0.02"/>
<rect width="60" height="60" transform="translate(1140 660)" fill="black" fill-opacity="0.02"/>
<rect width="60" height="60" transform="translate(1200 600)" fill="black" fill-opacity="0.02"/>
<rect width="60" height="60" transform="translate(1200 660)" fill="black" fill-opacity="0.02"/>
<rect width="60" height="60" transform="translate(1080 300)" fill="black" fill-opacity="0.02"/>
<rect width="60" height="60" transform="translate(1140 240)" fill="black" fill-opacity="0.02"/>
<rect width="60" height="60" transform="translate(1260 60)" fill="black" fill-opacity="0.02"/>
<rect width="60" height="60" transform="translate(1380 60)" fill="black" fill-opacity="0.1"/>
<rect width="60" height="60" transform="translate(1260 300)" fill="black" fill-opacity="0.05"/>
<rect width="60" height="60" transform="translate(300)" fill="black" fill-opacity="0.05"/>
<rect width="60" height="60" transform="translate(480)" fill="black" fill-opacity="0.1"/>
<rect width="60" height="60" transform="translate(540)" fill="black" fill-opacity="0.1"/>
<rect width="60" height="60" transform="translate(660)" fill="black" fill-opacity="0.05"/>
<rect width="60" height="60" transform="translate(960)" fill="black" fill-opacity="0.1"/>
<rect width="60" height="60" transform="translate(1200)" fill="black" fill-opacity="0.05"/>
<rect width="60" height="60" transform="translate(1320)" fill="black" fill-opacity="0.1"/>
<rect width="60" height="60" transform="translate(1320 240)" fill="black" fill-opacity="0.05"/>
<rect width="60" height="60" transform="translate(1380 180)" fill="black" fill-opacity="0.1"/>
<rect width="60" height="60" transform="translate(1380 240)" fill="black" fill-opacity="0.1"/>
<rect width="60" height="60" transform="translate(1140 780)" fill="black" fill-opacity="0.02"/>
<rect width="60" height="60" transform="translate(1140 900)" fill="black" fill-opacity="0.05"/>
<rect width="60" height="60" transform="translate(1200 960)" fill="black" fill-opacity="0.1"/>
<rect width="60" height="60" transform="translate(1320 840)" fill="black" fill-opacity="0.1"/>
<rect width="60" height="60" transform="translate(1380 660)" fill="black" fill-opacity="0.1"/>
<rect width="60" height="60" transform="translate(1380 840)" fill="black" fill-opacity="0.1"/>
<rect width="60" height="60" transform="translate(1380 960)" fill="black" fill-opacity="0.1"/>
</g>
<defs>
<clipPath id="clip0_855_2">
<rect width="1440" height="1020" fill="white"/>
</clipPath>
</defs>
</svg>
