<svg width="1440" height="420" viewBox="0 0 1440 420" fill="none" xmlns="http://www.w3.org/2000/svg">
<g clip-path="url(#clip0_869_2)">
<rect width="60" height="60" transform="translate(240 180)" fill="black" fill-opacity="0.02"/>
<rect width="60" height="60" transform="translate(60 120)" fill="black" fill-opacity="0.05"/>
<rect width="60" height="60" transform="translate(60)" fill="black" fill-opacity="0.02"/>
<rect width="60" height="60" transform="translate(0 60)" fill="black" fill-opacity="0.05"/>
<rect width="60" height="60" transform="translate(120 240)" fill="black" fill-opacity="0.05"/>
<rect width="60" height="60" transform="translate(300 240)" fill="black" fill-opacity="0.05"/>
<rect width="60" height="60" transform="translate(0 360)" fill="black" fill-opacity="0.1"/>
<rect width="60" height="60" transform="translate(60 300)" fill="black" fill-opacity="0.1"/>
<rect width="60" height="60" transform="translate(60 180)" fill="black" fill-opacity="0.1"/>
<rect width="60" height="60" transform="translate(1320 120)" fill="black" fill-opacity="0.05"/>
<rect width="60" height="60" transform="translate(1260 240)" fill="black" fill-opacity="0.05"/>
<rect width="60" height="60" transform="translate(1380 180)" fill="black" fill-opacity="0.05"/>
<rect width="60" height="60" transform="translate(360 360)" fill="black" fill-opacity="0.05"/>
<rect width="60" height="60" transform="translate(660 240)" fill="black" fill-opacity="0.05"/>
<rect width="60" height="60" transform="translate(300 360)" fill="black" fill-opacity="0.1"/>
<rect width="60" height="60" transform="translate(180 360)" fill="black" fill-opacity="0.05"/>
<rect width="60" height="60" transform="translate(240 300)" fill="black" fill-opacity="0.1"/>
<rect width="60" height="60" transform="translate(420 180)" fill="black" fill-opacity="0.02"/>
<rect width="60" height="60" transform="translate(900 180)" fill="black" fill-opacity="0.02"/>
<rect width="60" height="60" transform="translate(540 360)" fill="black" fill-opacity="0.1"/>
<rect width="60" height="60" transform="translate(480 300)" fill="black" fill-opacity="0.1"/>
<rect width="60" height="60" transform="translate(660 360)" fill="black" fill-opacity="0.1"/>
<rect width="60" height="60" transform="translate(720 300)" fill="black" fill-opacity="0.1"/>
<rect width="60" height="60" transform="translate(720 180)" fill="black" fill-opacity="0.02"/>
<rect width="60" height="60" transform="translate(480 240)" fill="black" fill-opacity="0.05"/>
<rect width="60" height="60" transform="translate(840 360)" fill="black" fill-opacity="0.05"/>
<rect width="60" height="60" transform="translate(960 360)" fill="black" fill-opacity="0.1"/>
<rect width="60" height="60" transform="translate(1020 300)" fill="black" fill-opacity="0.05"/>
<rect width="60" height="60" transform="translate(960 240)" fill="black" fill-opacity="0.02"/>
<rect width="60" height="60" transform="translate(1200 120)" fill="black" fill-opacity="0.02"/>
<rect width="60" height="60" transform="translate(1380 60)" fill="black" fill-opacity="0.02"/>
<rect width="60" height="60" transform="translate(1320)" fill="black" fill-opacity="0.02"/>
<rect width="60" height="60" transform="translate(1140 180)" fill="black" fill-opacity="0.02"/>
<rect width="60" height="60" transform="translate(1140 300)" fill="black" fill-opacity="0.05"/>
<rect width="60" height="60" transform="translate(1200 360)" fill="black" fill-opacity="0.1"/>
<rect width="60" height="60" transform="translate(1320 300)" fill="black" fill-opacity="0.1"/>
<rect width="60" height="60" transform="translate(1380 360)" fill="black" fill-opacity="0.1"/>
<rect width="60" height="60" transform="translate(1380 240)" fill="black" fill-opacity="0.1"/>
</g>
<defs>
<clipPath id="clip0_869_2">
<rect width="1440" height="420" fill="white"/>
</clipPath>
</defs>
</svg>
