<svg width="1299" height="1268" viewBox="0 0 1299 1268" fill="none" xmlns="http://www.w3.org/2000/svg">
<path d="M924.314 29.6578C923.297 30.2009 922.907 30.953 923.018 32.1229C923.144 33.2928 923.924 34.0588 925.121 34.1562C926.542 34.2677 927.586 33.4181 927.698 32.0393C927.809 30.5909 926.946 29.5742 925.525 29.4907C924.982 29.4489 924.606 29.5046 924.314 29.6578Z" fill="white"/>
<path d="M744.709 16.7446C743.177 17.441 742.564 19.2237 743.33 20.7696C744.249 22.6358 746.672 22.9701 748.093 21.4381C749.179 20.2543 749.221 18.7362 748.218 17.5106C747.41 16.5357 745.892 16.2015 744.709 16.7446Z" fill="white"/>
<path d="M583.946 11.5601C581.76 12.6882 581.76 15.7382 583.946 16.9499C585.227 17.6602 586.843 17.2702 587.79 16.0307C589.28 14.067 587.832 11.2537 585.339 11.2537C584.81 11.2537 584.364 11.3512 583.946 11.5601Z" fill="white"/>
<path d="M442.103 0.481557C440.919 1.52609 441.197 3.21127 442.646 3.76835C443.468 4.07474 444.178 3.87977 444.791 3.19734C445.139 2.79345 445.222 2.57062 445.222 2.06924C445.222 0.843661 444.456 0.0637444 443.245 0.0637444C442.715 0.0637444 442.493 0.147307 442.103 0.481557Z" fill="white"/>
<path d="M187.657 32.424C187.462 32.5075 187.128 32.7304 186.919 32.9393C185.694 34.0952 185.694 35.8779 186.919 37.0338C188.006 38.0644 189.997 37.8973 190.902 36.6996C192.309 34.8334 191.042 32.2569 188.744 32.2847C188.34 32.2847 187.852 32.3543 187.657 32.424Z" fill="white"/>
<path d="M1272.01 15.304C1270.13 16.2371 1270.15 19.0086 1272.05 19.9835C1272.58 20.262 1273.75 20.262 1274.29 19.9835C1274.83 19.7049 1275.57 18.8693 1275.68 18.4097C1275.74 18.2147 1275.74 17.7273 1275.71 17.3095C1275.56 15.5268 1273.65 14.4962 1272.01 15.304Z" fill="white"/>
<path d="M1082.23 27.6402C1080.56 28.6569 1080.36 30.6763 1081.8 31.9437C1083.02 33.0161 1085.06 32.5565 1085.78 31.0663C1086.38 29.8268 1085.87 28.2669 1084.67 27.6541C1083.96 27.292 1082.8 27.2781 1082.23 27.6402Z" fill="white"/>
<path d="M39.1449 63.5265C37.7104 63.8886 36.3734 65.0306 35.691 66.4651C35.3011 67.2729 35.2593 67.5097 35.2593 68.6238C35.2593 69.738 35.3011 69.9748 35.691 70.7825C36.2202 71.8967 37.1673 72.8716 38.2257 73.3869C38.9221 73.7211 39.1728 73.7629 40.4123 73.7769C41.6797 73.7769 41.8886 73.7351 42.6406 73.373C43.6991 72.8437 44.6322 71.9106 45.1614 70.8522C45.5235 70.1001 45.5653 69.8773 45.5653 68.6238C45.5653 67.3704 45.5235 67.1476 45.1614 66.3955C44.6322 65.3231 43.6852 64.39 42.6406 63.8886C41.9721 63.5683 41.5682 63.4847 40.6908 63.4569C40.078 63.429 39.3817 63.4708 39.1449 63.5265Z" fill="white"/>
<path d="M387.592 168.582C385.99 169.529 385.53 171.423 386.519 172.983C387.633 174.738 390.098 174.905 391.491 173.304C392.717 171.925 392.396 169.71 390.809 168.666C390.349 168.346 390.043 168.276 389.249 168.234C388.371 168.192 388.19 168.234 387.592 168.582Z" fill="white"/>
<path d="M291.067 84.1715C289.563 84.5615 288.114 85.7453 287.404 87.1659C287.042 87.9319 287 88.1268 287 89.4638C287 90.759 287.042 91.0237 287.362 91.7061C288.922 95.0347 293.239 95.926 295.913 93.4888C298.741 90.8983 298.114 86.3442 294.674 84.659C293.852 84.2551 293.462 84.1437 292.627 84.1019C292.056 84.074 291.359 84.1019 291.067 84.1715Z" fill="white"/>
<path d="M1205.6 106.754C1203.6 107.854 1203.44 110.445 1205.32 111.615C1205.87 111.949 1206.13 112.033 1206.77 112.019C1207.69 112.005 1208.25 111.74 1208.85 111.072C1209.92 109.846 1209.65 107.896 1208.3 106.991C1207.58 106.517 1206.26 106.406 1205.6 106.754Z" fill="white"/>
<path d="M488.019 92.0959C485.623 92.9733 485.345 96.2462 487.573 97.4857C489.063 98.3074 491.013 97.6389 491.681 96.0651C492.642 93.7393 490.344 91.2603 488.019 92.0959Z" fill="white"/>
<path d="M155.447 112.078C153.873 112.607 152.857 114.362 153.191 115.964C153.72 118.512 156.589 119.682 158.637 118.206C160.447 116.897 160.642 114.474 159.082 112.914C158.595 112.426 158.205 112.176 157.662 112.022C156.729 111.744 156.394 111.744 155.447 112.078Z" fill="white"/>
<path d="M729.141 115.693C727.888 116.264 727.261 117.281 727.261 118.73C727.261 121.167 729.81 122.741 731.983 121.64C733.626 120.805 734.267 118.911 733.473 117.239C733.083 116.404 732.693 116.028 731.857 115.652C731.008 115.262 730.019 115.276 729.141 115.693Z" fill="white"/>
<path d="M1071.22 165.755C1070.33 165.992 1069.3 166.591 1068.6 167.301C1065.9 170.087 1066.72 174.557 1070.26 176.298C1070.98 176.66 1071.19 176.688 1072.59 176.688C1073.95 176.688 1074.2 176.646 1074.88 176.326C1077.17 175.253 1078.55 172.677 1078.11 170.323C1077.77 168.457 1076.61 166.925 1074.95 166.145C1074.22 165.811 1073.81 165.713 1072.89 165.672C1072.27 165.644 1071.51 165.686 1071.22 165.755Z" fill="white"/>
<path d="M1292.37 127.199C1290.71 127.548 1289.97 129.47 1290.93 130.918C1291.82 132.269 1294 132.269 1294.89 130.918C1296.11 129.052 1294.55 126.74 1292.37 127.199Z" fill="white"/>
<path d="M840.696 184.587C836.824 186.008 835.849 190.868 838.885 193.681C840.528 195.213 842.771 195.548 844.818 194.587C845.681 194.197 846.949 192.929 847.353 192.08C848.676 189.35 847.52 186.119 844.762 184.824C843.551 184.253 841.879 184.155 840.696 184.587Z" fill="white"/>
<path d="M34.0708 168.198C31.8285 169.173 31.5361 172.279 33.5555 173.644C35.6445 175.05 38.3882 173.588 38.3882 171.081C38.3743 169.243 37.1069 167.961 35.2964 167.975C34.8925 167.989 34.3354 168.087 34.0708 168.198Z" fill="white"/>
<path d="M1193.49 211.3C1193.18 211.607 1193 211.927 1193 212.15C1193 213.626 1194.82 214.155 1195.56 212.902C1196.05 212.08 1195.51 211.049 1194.49 210.882C1194.04 210.813 1193.92 210.868 1193.49 211.3Z" fill="white"/>
<path d="M644.186 207.796C643.365 208.061 642.821 208.52 642.39 209.3C641.498 210.916 642.195 212.949 643.88 213.646C644.952 214.105 646.415 213.841 647.236 213.061C648.977 211.403 648.323 208.493 646.066 207.824C645.203 207.56 644.952 207.56 644.186 207.796Z" fill="white"/>
<path d="M953.882 212.316C950.943 214.002 952.155 218.444 955.539 218.444C957.977 218.444 959.55 215.965 958.52 213.779C957.949 212.525 956.932 211.899 955.484 211.899C954.759 211.899 954.467 211.982 953.882 212.316Z" fill="white"/>
<path d="M1065.88 295.231C1064.24 296.094 1063.53 298.211 1064.33 299.826C1064.64 300.425 1065.34 301.136 1065.98 301.47C1066.76 301.888 1068.26 301.888 1069.06 301.47C1071.72 300.063 1071.62 296.386 1068.9 295.147C1068.07 294.757 1066.72 294.799 1065.88 295.231Z" fill="white"/>
<path d="M269.795 217.692C268.736 218.166 268.123 218.946 267.914 220.088C267.594 221.801 269.14 223.653 270.895 223.667C272.789 223.667 274.112 222.4 274.112 220.547C274.112 218.277 271.828 216.773 269.795 217.692Z" fill="white"/>
<path d="M513.968 209.564C511.67 210.219 511.28 213.422 513.355 214.634C515.5 215.887 518.09 213.882 517.45 211.472C517.241 210.692 516.335 209.759 515.569 209.55C514.915 209.369 514.622 209.369 513.968 209.564Z" fill="white"/>
<path d="M167.79 255.134C166.996 255.343 166.119 256.276 165.91 257.126C165.534 258.63 166.467 260.204 167.929 260.51C169.781 260.914 171.369 259.661 171.369 257.822C171.369 256.541 170.547 255.455 169.308 255.12C168.667 254.939 168.528 254.939 167.79 255.134Z" fill="white"/>
<path d="M1258.71 249.263C1257.49 249.653 1256.76 250.934 1257.07 252.146C1257.39 253.344 1258.34 254.026 1259.6 253.929C1261.04 253.831 1261.9 252.815 1261.79 251.366C1261.67 249.806 1260.19 248.79 1258.71 249.263Z" fill="white"/>
<path d="M650.732 356.526C649.284 357.056 648.1 358.142 647.376 359.604C647.028 360.301 647 360.51 647 361.972C647 363.434 647.028 363.643 647.39 364.353C648.128 365.858 649.395 366.972 650.955 367.473C652.125 367.849 653.838 367.724 655.05 367.167C656.262 366.596 657.264 365.593 657.835 364.367C658.253 363.504 658.281 363.323 658.281 361.972C658.281 360.621 658.253 360.44 657.849 359.604C657.125 358.058 656.122 357.153 654.548 356.554C653.504 356.178 651.777 356.164 650.732 356.526Z" fill="white"/>
<path d="M918.327 327.349C916.767 327.85 915.903 328.992 915.903 330.58C915.903 331.332 915.973 331.61 916.293 332.153C917.839 334.8 921.711 334.201 922.379 331.206C922.686 329.841 921.92 328.268 920.666 327.627C920.04 327.307 918.87 327.167 918.327 327.349Z" fill="white"/>
<path d="M380.503 312.049C379.821 312.257 379.264 312.62 378.804 313.177C377.732 314.416 377.732 316.115 378.804 317.355C380.35 319.179 383.136 318.873 384.194 316.756C385.113 314.904 384.18 312.703 382.202 312.118C381.52 311.909 381.047 311.895 380.503 312.049Z" fill="white"/>
<path d="M1117.59 381.268C1117.02 381.519 1116.17 382.55 1116.06 383.121C1115.74 384.848 1116.8 386.38 1118.49 386.602C1119.19 386.7 1119.94 386.449 1120.56 385.906C1122.53 384.165 1121.38 381.059 1118.76 381.073C1118.35 381.087 1117.83 381.171 1117.59 381.268Z" fill="white"/>
<path d="M1211.56 368.816C1210.73 369.108 1210.21 369.498 1209.7 370.208C1209.18 370.919 1209 371.518 1209 372.534C1209 374.024 1209.89 375.334 1211.34 375.974C1212.12 376.322 1213.68 376.281 1214.49 375.877C1216.85 374.735 1217.34 371.615 1215.46 369.721C1214.38 368.621 1213.04 368.314 1211.56 368.816Z" fill="white"/>
<path d="M36.0242 363.196C34.9518 363.879 34.5201 365.202 35.0075 366.372C35.2861 367.04 35.5785 367.36 36.2192 367.681C37.9461 368.558 39.9934 367.305 39.9934 365.369C39.9934 363.308 37.779 362.082 36.0242 363.196Z" fill="white"/>
<path d="M813.42 387.915C813.351 387.943 813.114 387.998 812.905 388.04C812.362 388.165 811.54 388.931 811.248 389.586C810.426 391.369 811.749 393.402 813.741 393.416C816.22 393.43 817.445 390.561 815.746 388.778C815.537 388.555 815.217 388.291 815.022 388.193C814.646 388.012 813.657 387.831 813.42 387.915Z" fill="white"/>
<path d="M525.458 380.834C524.288 381.377 523.578 382.505 523.578 383.842C523.578 385.722 524.887 387.031 526.781 387.031C530.29 387.031 531.293 382.296 528.104 380.834C527.38 380.499 526.182 380.499 525.458 380.834Z" fill="white"/>
<path d="M194.1 339.342C192.262 340.303 192.861 343.005 194.908 343.005C196.05 343.005 196.872 342.225 196.872 341.125C196.872 339.69 195.326 338.687 194.1 339.342Z" fill="white"/>
<path d="M992.103 400.776C990.863 401.166 990 402.377 990 403.77C990 405.594 991.267 406.834 993.134 406.834C994.317 406.834 995.348 406.193 995.891 405.093C996.713 403.408 995.808 401.319 994.025 400.79C993.148 400.525 992.911 400.525 992.103 400.776Z" fill="white"/>
<path d="M284.448 415.973C284.212 416.029 283.808 416.308 283.557 416.572C283.167 416.976 283.07 417.199 283.014 417.798C282.972 418.411 283.014 418.619 283.292 419.009C283.794 419.748 284.281 420.04 284.978 420.04C286.217 420.04 287.094 419.19 287.094 417.979C287.094 417.436 287.011 417.129 286.802 416.837C286.245 416.099 285.242 415.737 284.448 415.973Z" fill="white"/>
<path d="M1284.44 425.943C1283.55 426.361 1283.09 427.071 1283.02 428.129C1282.97 428.882 1283.01 429.104 1283.32 429.606C1284.17 431.068 1286.3 431.333 1287.4 430.107C1288.19 429.244 1288.36 428.143 1287.86 427.099C1287.26 425.887 1285.7 425.344 1284.44 425.943Z" fill="white"/>
<path d="M86.0931 486.218C84.5194 486.663 83.0431 488.028 82.5139 489.518C82.3607 490.006 82.2632 490.647 82.2632 491.371C82.2632 492.332 82.3328 492.61 82.7089 493.418C83.7395 495.605 85.8285 496.747 88.2518 496.426C89.8674 496.203 91.3297 495.145 92.1375 493.599C92.5414 492.819 92.5692 492.666 92.5692 491.301C92.5692 489.978 92.5274 489.755 92.1793 489.045C91.079 486.789 88.4329 485.577 86.0931 486.218Z" fill="white"/>
<path d="M736.695 509.473C735.664 509.849 734.995 510.433 734.48 511.436C733.728 512.871 733.867 514.417 734.842 515.712C737.168 518.762 742.015 517.077 742.001 513.233C741.987 510.503 739.257 508.567 736.695 509.473Z" fill="white"/>
<path d="M1063.03 505.993C1061.53 506.633 1060.66 508.458 1061.12 509.962C1061.85 512.302 1064.81 513.151 1066.57 511.508C1068.24 509.934 1067.82 507.065 1065.76 506.104C1064.93 505.714 1063.78 505.672 1063.03 505.993Z" fill="white"/>
<path d="M582.443 471.624C581.789 471.959 581.427 472.363 581.176 473.017C580.689 474.284 581.246 475.691 582.443 476.276C583.711 476.889 585.173 476.429 585.897 475.19C586.19 474.688 586.246 473.407 585.981 472.906C585.744 472.446 585.145 471.819 584.714 471.597C584.212 471.332 582.959 471.346 582.443 471.624Z" fill="white"/>
<path d="M882.816 534.989C881.131 535.699 880.17 536.591 879.446 538.123C879.028 539 879 539.153 879 540.588C879 542.036 879.028 542.175 879.46 543.053C880.253 544.682 881.646 545.852 883.317 546.284C887.83 547.468 891.869 543.262 890.49 538.819C889.975 537.148 888.916 535.936 887.301 535.184C886.493 534.794 886.2 534.738 884.989 534.697C883.777 534.669 883.498 534.697 882.816 534.989Z" fill="white"/>
<path d="M337.343 533.823C334.181 534.853 332.858 538.767 334.738 541.524C335.713 542.945 337.134 543.697 338.917 543.711C339.961 543.711 340.142 543.669 341.103 543.196C342.287 542.611 342.941 541.942 343.54 540.731C343.875 540.062 343.916 539.811 343.916 538.641C343.902 537.499 343.861 537.221 343.526 536.552C343.053 535.564 342.05 534.561 341.061 534.073C340.435 533.767 340.073 533.697 339.112 533.67C338.401 533.642 337.691 533.711 337.343 533.823Z" fill="white"/>
<path d="M237.919 560.882C236.804 561.383 236.178 562.219 236.024 563.43C235.788 565.143 237.306 566.856 239.047 566.856C240.356 566.856 241.428 566.216 241.943 565.116C243.155 562.525 240.495 559.712 237.919 560.882Z" fill="white"/>
<path d="M1200.86 490.401C1200.08 490.707 1199.69 491.083 1199.31 491.835C1198.88 492.713 1198.9 493.465 1199.36 494.356C1200 495.582 1201.75 496.167 1202.96 495.54C1204.06 494.969 1204.55 494.189 1204.55 492.991C1204.55 491.069 1202.61 489.718 1200.86 490.401Z" fill="white"/>
<path d="M1034.27 639.694C1032.99 640.112 1032 640.947 1031.39 642.117C1031.06 642.744 1031 642.994 1031 644.095C1031 645.139 1031.06 645.46 1031.35 646.044C1032.73 648.872 1036.46 649.512 1038.67 647.312C1040.82 645.153 1040.3 641.616 1037.63 640.153C1036.86 639.735 1036.58 639.652 1035.68 639.624C1035.09 639.596 1034.47 639.624 1034.27 639.694Z" fill="white"/>
<path d="M1227.45 585.473C1227.11 585.654 1226.65 586.072 1226.42 586.392C1226.06 586.908 1226 587.103 1226 587.938C1226 588.774 1226.06 588.969 1226.42 589.484C1228.01 591.74 1231.5 590.682 1231.5 587.938C1231.5 585.835 1229.3 584.498 1227.45 585.473Z" fill="white"/>
<path d="M37.1402 572.409C37.0705 572.437 36.8338 572.492 36.6249 572.534C36.0539 572.66 35.3018 573.384 35.0372 574.08C34.2155 576.253 36.3742 578.314 38.4911 577.381C40.3991 576.545 40.5802 573.802 38.7836 572.799C38.2683 572.506 37.4187 572.297 37.1402 572.409Z" fill="white"/>
<path d="M599.13 640.247C596.233 641.027 594.52 643.743 595.119 646.598C595.467 648.311 596.498 649.62 598.113 650.4C598.935 650.79 599.144 650.832 600.411 650.832C601.706 650.832 601.874 650.804 602.723 650.386C603.837 649.843 604.812 648.84 605.327 647.726C605.662 647.03 605.704 646.765 605.704 645.54C605.704 644.272 605.662 644.063 605.272 643.242C604.52 641.64 603.057 640.498 601.33 640.178C600.369 639.997 600.021 640.011 599.13 640.247Z" fill="white"/>
<path d="M142.111 646.241C139.73 647.397 139.159 650.544 140.997 652.397C142.056 653.455 143.727 653.803 145.133 653.26C145.941 652.94 147.069 651.756 147.306 650.976C147.849 649.152 147.153 647.313 145.565 646.38C144.632 645.837 143.086 645.767 142.111 646.241Z" fill="white"/>
<path d="M880.915 640.478C878.185 641.355 878.199 645.157 880.929 645.867C884.021 646.661 885.817 642.344 883.046 640.798C882.433 640.45 881.472 640.31 880.915 640.478Z" fill="white"/>
<path d="M425.294 664.877C423.985 665.531 423.302 666.659 423.302 668.149C423.302 670.266 424.806 671.771 426.909 671.771C428.386 671.757 429.556 671.032 430.21 669.737C430.572 668.985 430.572 667.314 430.21 666.562C429.583 665.308 428.497 664.64 426.993 664.556C426.157 664.514 425.921 664.556 425.294 664.877Z" fill="white"/>
<path d="M766.518 641.506C765.501 641.854 765 642.592 765 643.692C765.014 644.946 766.003 645.893 767.284 645.893C768.44 645.893 769.485 644.848 769.485 643.706C769.485 642.104 767.98 640.976 766.518 641.506Z" fill="white"/>
<path d="M1286.92 692.937C1286.1 693.313 1285.85 693.577 1285.47 694.413C1284.97 695.527 1285.16 696.599 1286.04 697.56C1287.22 698.842 1288.95 698.87 1290.19 697.616C1291.67 696.154 1291.31 693.884 1289.45 692.951C1288.56 692.519 1287.82 692.505 1286.92 692.937Z" fill="white"/>
<path d="M935.478 706.702C934.963 706.939 934.364 707.566 934.169 708.081C933.32 710.309 935.98 712.329 937.874 710.88C938.417 710.462 938.89 709.571 938.89 708.944C938.89 708.443 938.473 707.496 938.111 707.176C937.414 706.563 936.272 706.354 935.478 706.702Z" fill="white"/>
<path d="M491.796 534.545C490.556 535.214 490.821 537.178 492.2 537.651C493.356 538.055 494.4 537.261 494.4 535.966C494.4 535.339 494.344 535.228 493.885 534.796C493.453 534.406 493.258 534.323 492.771 534.323C492.436 534.336 492.005 534.42 491.796 534.545Z" fill="white"/>
<path d="M2.4608 730.886C1.38842 731.123 0.803478 731.819 0.789551 732.919C0.789551 733.811 1.10987 734.298 1.98728 734.758C3.44962 735.524 5.02338 734.368 4.87019 732.669C4.74484 731.485 3.60282 730.649 2.4608 730.886Z" fill="white"/>
<path d="M550.962 747.116C548.915 747.84 548.163 750.069 549.333 751.837C550.419 753.481 553.121 753.648 554.263 752.158C555.391 750.667 555.252 748.871 553.929 747.743C553.024 746.963 552.007 746.74 550.962 747.116Z" fill="white"/>
<path d="M1161.89 686.726C1160.74 687.269 1160 688.439 1160 689.734C1160 693.439 1165.13 694.261 1166.35 690.765C1167.1 688.662 1165.49 686.462 1163.23 686.462C1162.77 686.462 1162.23 686.573 1161.89 686.726Z" fill="white"/>
<path d="M279.839 750.166C277.861 751.155 277.388 753.634 278.864 755.291C279.505 756.029 280.313 756.392 281.357 756.392C283.808 756.405 285.382 753.801 284.268 751.615C283.418 749.971 281.496 749.344 279.839 750.166Z" fill="white"/>
<path d="M78.0588 770.806C77.8638 770.89 77.5435 771.113 77.3346 771.308C76.2762 772.31 77.07 774.135 78.5602 774.135C79.744 774.135 80.5936 772.853 80.1479 771.767C79.8276 771.001 78.783 770.514 78.0588 770.806Z" fill="white"/>
<path d="M645.667 852.524C641.865 853.791 640.751 858.624 643.606 861.479C645.737 863.609 649.023 863.596 651.168 861.437C652.895 859.724 653.271 857.398 652.213 855.211C651.071 852.886 648.16 851.688 645.667 852.524Z" fill="white"/>
<path d="M811.607 791.891C810.869 792.281 810.172 793.256 810.033 794.064C809.796 795.54 810.855 797.1 812.317 797.421C814.713 797.95 816.704 795.526 815.674 793.312C814.963 791.766 813.083 791.112 811.607 791.891Z" fill="white"/>
<path d="M168.157 837.952C167.614 838.133 167.21 838.412 166.736 838.899C164.09 841.684 166.945 846.071 170.594 844.818C171.541 844.498 172.502 843.523 172.822 842.562C173.477 840.584 172.363 838.481 170.343 837.882C169.438 837.618 169.09 837.618 168.157 837.952Z" fill="white"/>
<path d="M949.93 837.195C947.019 838.003 946.017 841.694 948.12 843.867C948.844 844.633 949.596 844.967 950.668 845.05C952.312 845.162 953.677 844.438 954.512 843.031C955.069 842.07 955.139 840.51 954.665 839.48C953.83 837.655 951.796 836.666 949.93 837.195Z" fill="white"/>
<path d="M1183.25 823.116C1181.65 823.436 1180.17 824.606 1179.43 826.166C1179.04 826.987 1179 827.196 1179 828.464C1179 829.759 1179.03 829.926 1179.45 830.775C1179.99 831.89 1180.99 832.865 1182.11 833.38C1182.8 833.714 1183.07 833.756 1184.29 833.756C1185.56 833.756 1185.77 833.714 1186.59 833.324C1188.21 832.544 1189.24 831.235 1189.58 829.522C1190.21 826.528 1188.28 823.687 1185.2 823.102C1184.36 822.948 1184.13 822.948 1183.25 823.116Z" fill="white"/>
<path d="M416.738 775.042C416.167 775.391 416 775.711 416 776.505C416 777.062 416.07 777.229 416.474 777.633C416.891 778.051 417.031 778.106 417.671 778.106C418.312 778.106 418.451 778.051 418.869 777.633C419.259 777.243 419.343 777.048 419.343 776.588C419.343 775.112 417.964 774.29 416.738 775.042Z" fill="white"/>
<path d="M534.001 862.572C533.207 863.059 532.929 864.118 533.374 865.037C533.681 865.692 534.294 866.054 535.115 866.054C535.658 866.054 535.867 865.97 536.271 865.622C536.954 865.009 537.149 864.299 536.842 863.491C536.41 862.363 535.06 861.931 534.001 862.572Z" fill="white"/>
<path d="M430.294 885.87C429.096 886.386 428.316 887.597 428.316 888.92C428.316 891.386 430.823 892.945 433.052 891.831C435.433 890.647 435.433 887.193 433.052 886.01C432.216 885.592 431.074 885.536 430.294 885.87Z" fill="white"/>
<path d="M329.595 932.188C327.492 933.177 327.464 935.837 329.539 936.923C331.169 937.773 333.174 936.491 333.174 934.583C333.174 932.731 331.224 931.422 329.595 932.188Z" fill="white"/>
<path d="M1226.96 918.545C1226.06 918.949 1225.5 919.854 1225.5 920.926C1225.5 922.444 1226.56 923.503 1228.08 923.503C1229.15 923.503 1230.03 922.932 1230.45 921.929C1230.82 921.038 1230.63 919.84 1229.99 919.144C1229.33 918.42 1227.88 918.141 1226.96 918.545Z" fill="white"/>
<path d="M816.114 959.881C815.431 960.021 814.512 960.466 813.83 961.009C812.214 962.291 811.546 964.853 812.326 966.914C812.757 968.084 814.136 969.463 815.306 969.895C816.323 970.271 817.924 970.313 818.857 969.978C821.295 969.115 822.813 966.58 822.339 964.157C821.754 961.149 819.066 959.31 816.114 959.881Z" fill="white"/>
<path d="M1024.09 933.341C1023.27 933.703 1022.76 934.734 1022.97 935.583C1023.03 935.778 1023.27 936.168 1023.52 936.447C1024.41 937.422 1025.94 937.157 1026.58 935.931C1027 935.11 1026.72 934.01 1025.94 933.508C1025.47 933.188 1024.59 933.118 1024.09 933.341Z" fill="white"/>
<path d="M1094.45 961.872C1092.86 962.179 1091.8 963.488 1091.8 965.145C1091.8 966.176 1092.14 966.942 1092.85 967.568C1093.54 968.167 1094.14 968.418 1094.95 968.418C1096.91 968.418 1098.35 967.039 1098.35 965.173C1098.35 964.212 1098.07 963.502 1097.47 962.875C1096.66 962.039 1095.52 961.649 1094.45 961.872Z" fill="white"/>
<path d="M198.841 1008.97C196.696 1009.71 195.234 1011.41 194.816 1013.66C194.259 1016.66 196.417 1019.74 199.551 1020.39C201.682 1020.82 204.049 1019.9 205.386 1018.09C207.364 1015.42 206.723 1011.56 203.98 1009.71C202.503 1008.7 200.456 1008.41 198.841 1008.97Z" fill="white"/>
<path d="M643.626 1005.85C640.952 1007.23 641.746 1011.13 644.768 1011.41C645.757 1011.51 646.843 1010.98 647.456 1010.1C647.832 1009.56 647.874 1009.38 647.874 1008.49C647.874 1007.62 647.818 1007.4 647.484 1006.9C646.941 1006.06 646.189 1005.6 645.2 1005.52C644.503 1005.46 644.281 1005.51 643.626 1005.85Z" fill="white"/>
<path d="M1186.16 1050.97C1185.79 1051.03 1185.2 1051.25 1184.85 1051.47C1182.61 1052.85 1182.36 1055.88 1184.34 1057.62C1185.91 1059 1188.01 1058.93 1189.49 1057.45C1192.18 1054.78 1189.94 1050.42 1186.16 1050.97Z" fill="white"/>
<path d="M519.85 1032.68C519.154 1032.9 518.639 1033.24 518.137 1033.79C516.745 1035.34 517.26 1037.92 519.182 1038.91C519.864 1039.25 521.006 1039.31 521.744 1039.03C524.446 1038 524.767 1034.49 522.288 1033.04C521.633 1032.65 520.463 1032.47 519.85 1032.68Z" fill="white"/>
<path d="M1067.45 793.336C1066.34 793.74 1065.59 794.492 1065.18 795.607C1064.93 796.303 1064.94 796.999 1065.2 797.751C1065.99 800.063 1068.87 800.871 1070.71 799.283C1072.79 797.515 1072.1 794.116 1069.53 793.35C1068.69 793.1 1068.15 793.1 1067.45 793.336Z" fill="white"/>
<path d="M31.8381 1037.55C31.5735 1037.65 31.0304 1038.04 30.6404 1038.43C29.8326 1039.24 29.5263 1040.08 29.6516 1041.08C30.0833 1044.2 34.0804 1045.06 35.7099 1042.39C36.1416 1041.68 36.1695 1041.57 36.1277 1040.56C36.0859 1039.64 36.0302 1039.42 35.6681 1038.91C34.8185 1037.71 33.1612 1037.12 31.8381 1037.55Z" fill="white"/>
<path d="M229.097 1110.44C228.415 1110.92 228.095 1111.43 228.011 1112.2C227.788 1114.59 230.991 1115.57 232.217 1113.48C232.83 1112.43 232.37 1110.87 231.284 1110.37C230.588 1110.04 229.654 1110.07 229.097 1110.44Z" fill="white"/>
<path d="M854.418 1052.52C853.721 1052.77 853.359 1053.11 853.053 1053.79C852.301 1055.42 853.429 1057.2 855.225 1057.2C856.535 1057.2 857.663 1056.1 857.663 1054.82C857.663 1054.25 857.259 1053.33 856.855 1052.98C856.535 1052.69 855.643 1052.34 855.225 1052.34C855.072 1052.34 854.71 1052.43 854.418 1052.52Z" fill="white"/>
<path d="M972.144 1055.49C970.487 1056.23 970.181 1058.36 971.559 1059.57C973.314 1061.1 976.1 1059.32 975.431 1057.09C974.999 1055.66 973.467 1054.9 972.144 1055.49Z" fill="white"/>
<path d="M380.052 1084.21C379.495 1084.44 378.882 1085.08 378.646 1085.64C378.367 1086.3 378.409 1087.41 378.729 1088.05C379.147 1088.87 380.275 1089.58 381.153 1089.58C382.267 1089.58 383.562 1088.61 383.882 1087.54C384.244 1086.32 383.632 1084.88 382.503 1084.29C381.849 1083.97 380.693 1083.93 380.052 1084.21Z" fill="white"/>
<path d="M15.0021 1093.47C14.5147 1093.56 13.8462 1094.41 13.8462 1094.94C13.8462 1096.75 16.2556 1097.13 16.8962 1095.43C17.2862 1094.38 16.172 1093.23 15.0021 1093.47Z" fill="white"/>
<path d="M1260.61 1115.08C1259.26 1115.78 1258.68 1117.27 1259.24 1118.59C1260.02 1120.47 1262.23 1120.95 1263.68 1119.54C1264.77 1118.49 1264.86 1117.12 1263.93 1115.86C1263.25 1114.94 1261.62 1114.55 1260.61 1115.08Z" fill="white"/>
<path d="M757.1 1151.87C754.273 1152.81 752.741 1155.9 753.702 1158.74C754.357 1160.69 755.833 1161.96 757.922 1162.33C760.805 1162.88 763.618 1160.84 764.133 1157.83C764.537 1155.54 763.2 1153.07 760.986 1152.05C759.9 1151.57 758.27 1151.48 757.1 1151.87Z" fill="white"/>
<path d="M1091.88 1111.61C1091.24 1111.91 1090.47 1112.71 1090.18 1113.42C1089.84 1114.23 1090 1115.69 1090.51 1116.4C1091.17 1117.35 1091.93 1117.8 1092.98 1117.87C1094.09 1117.94 1094.75 1117.73 1095.47 1117.07C1096.21 1116.4 1096.57 1115.58 1096.56 1114.55C1096.56 1113.26 1095.76 1112.06 1094.56 1111.57C1093.87 1111.28 1092.57 1111.29 1091.88 1111.61Z" fill="white"/>
<path d="M312.204 1169.5C310.867 1170.21 310.588 1171.91 311.647 1172.95C312.594 1173.91 313.889 1173.94 314.808 1173.02C315.686 1172.14 315.714 1170.86 314.878 1169.96C314.126 1169.14 313.193 1168.98 312.204 1169.5Z" fill="white"/>
<path d="M550.911 1127.29C550.187 1127.56 549.755 1127.85 549.365 1128.38C548.237 1129.91 548.627 1131.93 550.243 1132.92C550.953 1133.35 551.078 1133.38 552.011 1133.34C553.293 1133.28 554.031 1132.82 554.602 1131.71C555.298 1130.33 555.02 1128.88 553.878 1127.9C553 1127.15 551.914 1126.93 550.911 1127.29Z" fill="white"/>
<path d="M60.9266 920.051C59.2692 921.053 59.9795 923.574 61.9154 923.574C62.9878 923.574 63.8095 922.739 63.8095 921.652C63.8095 920.176 62.1939 919.271 60.9266 920.051Z" fill="white"/>
<path d="M459.617 1200.2C457.876 1200.63 456.428 1201.81 455.62 1203.46C455.188 1204.34 455.161 1204.47 455.161 1205.92C455.161 1207.36 455.188 1207.51 455.606 1208.39C456.219 1209.68 457.124 1210.62 458.392 1211.24C461.289 1212.68 464.812 1211.48 466.233 1208.57C467.389 1206.24 466.957 1203.64 465.132 1201.8C463.628 1200.3 461.595 1199.71 459.617 1200.2Z" fill="white"/>
<path d="M936.32 1174.73C935.401 1174.94 934.301 1176.08 934.092 1177.04C933.841 1178.23 934.092 1179.05 934.97 1179.94C935.554 1180.51 935.833 1180.69 936.418 1180.82C938.423 1181.25 940.234 1179.8 940.22 1177.75C940.22 1175.71 938.354 1174.26 936.32 1174.73Z" fill="white"/>
<path d="M181.421 1205.29C180.557 1205.65 180 1206.53 180 1207.51C180 1209.08 181.532 1210.32 182.953 1209.89C184.095 1209.55 184.763 1208.68 184.763 1207.51C184.763 1206.14 183.914 1205.25 182.563 1205.18C182.117 1205.17 181.616 1205.21 181.421 1205.29Z" fill="white"/>
<path d="M1136.64 1212.54C1135.01 1213.13 1133.75 1214.44 1133.24 1216.08C1132.07 1219.9 1135.38 1223.68 1139.28 1222.99C1143.28 1222.26 1145.13 1217.65 1142.74 1214.38C1141.41 1212.6 1138.73 1211.79 1136.64 1212.54Z" fill="white"/>
<path d="M1295.11 995.61C1292.73 996.181 1292.22 999.398 1294.32 1000.69C1295.8 1001.61 1297.66 1000.99 1298.35 999.342C1298.96 997.88 1298.11 996.139 1296.56 995.679C1295.81 995.457 1295.78 995.457 1295.11 995.61Z" fill="white"/>
<path d="M991.569 1242.35C990.232 1242.96 989.494 1244.23 989.592 1245.76C989.773 1248.74 993.31 1250.08 995.427 1247.96C996.068 1247.32 996.527 1246.29 996.527 1245.5C996.527 1244.9 996.109 1243.81 995.664 1243.28C994.759 1242.18 992.878 1241.75 991.569 1242.35Z" fill="white"/>
<path d="M37.5971 1256.64C36.455 1257.02 35.4941 1257.93 35.0623 1259.06C34.5192 1260.5 34.7977 1261.95 35.8423 1263.12C36.6779 1264.05 37.5135 1264.42 38.753 1264.44C41.0649 1264.45 42.7501 1262.78 42.7501 1260.46C42.7501 1258.87 41.9562 1257.61 40.48 1256.86C39.7558 1256.49 38.377 1256.39 37.5971 1256.64Z" fill="white"/>
<path d="M796.588 1241.71C796.073 1241.93 795.307 1242.78 795.181 1243.27C795.014 1243.92 795.209 1244.95 795.585 1245.45C797.048 1247.39 800.195 1246.15 799.972 1243.74C799.819 1242.15 798.036 1241.08 796.588 1241.71Z" fill="white"/>
<path d="M1086.64 1263.12C1086.12 1263.45 1085.54 1264.47 1085.54 1265.03C1085.54 1265.58 1086.12 1266.6 1086.64 1266.94C1087.29 1267.38 1088.38 1267.38 1089.02 1266.95C1089.81 1266.41 1090.06 1265.95 1090.06 1265.03C1090.06 1264.11 1089.81 1263.65 1089.02 1263.11C1088.38 1262.67 1087.29 1262.67 1086.64 1263.12Z" fill="white"/>
<path d="M1247.68 1250.38C1245.93 1251.27 1245.45 1253.64 1246.71 1255.17C1247.93 1256.65 1250.3 1256.65 1251.52 1255.17C1252.33 1254.18 1252.46 1252.93 1251.87 1251.74C1251.3 1250.63 1250.56 1250.17 1249.28 1250.11C1248.47 1250.09 1248.17 1250.13 1247.68 1250.38Z" fill="white"/>
</svg>
