<svg width="13" height="9" viewBox="0 0 13 9" fill="none" xmlns="http://www.w3.org/2000/svg">
<path d="M10.2112 8.91731H1.79117C1.45875 8.91779 1.133 8.82412 0.851614 8.64715C0.570226 8.47017 0.34471 8.21713 0.201168 7.91731C0.0331352 7.56157 -0.031584 7.16577 0.0143849 6.77504C0.0603538 6.3843 0.215162 6.01434 0.461168 5.70731L4.67117 0.607307C4.83638 0.416678 5.04065 0.263792 5.27012 0.15901C5.49959 0.0542284 5.74891 0 6.00117 0C6.25343 0 6.50274 0.0542284 6.73222 0.15901C6.96169 0.263792 7.16595 0.416678 7.33117 0.607307L11.5412 5.70731C11.7872 6.01434 11.942 6.3843 11.988 6.77504C12.0339 7.16577 11.9692 7.56157 11.8012 7.91731C11.6576 8.21713 11.4321 8.47017 11.1507 8.64715C10.8693 8.82412 10.5436 8.91779 10.2112 8.91731Z" fill="white"/>
</svg>
