<svg width="44" height="42" viewBox="0 0 44 42" fill="none" xmlns="http://www.w3.org/2000/svg">
<path d="M12 12C17.5228 12 22 9.76142 22 7C22 4.23858 17.5228 2 12 2C6.47715 2 2 4.23858 2 7C2 9.76142 6.47715 12 12 12Z" stroke="#858585" stroke-width="4" stroke-linecap="round" stroke-linejoin="round"/>
<path d="M2 7V14C2 16.761 6.477 19 12 19C17.523 19 22 16.761 22 14V7" stroke="#858585" stroke-width="4" stroke-linecap="round" stroke-linejoin="round"/>
<path d="M2 14V21C2 23.761 6.477 26 12 26C17.523 26 22 23.761 22 21V14" stroke="#858585" stroke-width="4" stroke-linecap="round" stroke-linejoin="round"/>
<path d="M2 21V28C2 30.761 6.477 33 12 33C17.523 33 22 30.761 22 28V21" stroke="#858585" stroke-width="4" stroke-linecap="round" stroke-linejoin="round"/>
<path d="M2 28V35C2 37.761 6.477 40 12 40C17.523 40 22 37.761 22 35V28" stroke="#858585" stroke-width="4" stroke-linecap="round" stroke-linejoin="round"/>
<path d="M32 26C37.5228 26 42 23.7614 42 21C42 18.2386 37.5228 16 32 16C26.4772 16 22 18.2386 22 21C22 23.7614 26.4772 26 32 26Z" stroke="#858585" stroke-width="4" stroke-linecap="round" stroke-linejoin="round"/>
<path d="M22 21V28C22 30.761 26.477 33 32 33C37.523 33 42 30.761 42 28V21" stroke="#858585" stroke-width="4" stroke-linecap="round" stroke-linejoin="round"/>
<path d="M22 28V35C22 37.761 26.477 40 32 40C37.523 40 42 37.761 42 35V28" stroke="#858585" stroke-width="4" stroke-linecap="round" stroke-linejoin="round"/>
</svg>
