<svg width="23" height="26" viewBox="0 0 23 26" fill="none" xmlns="http://www.w3.org/2000/svg">
<g clip-path="url(#clip0_813_6)">
<path d="M16.9444 9.3619C18.5496 10.5583 20.516 11.2623 22.6398 11.2623V7.00101C22.2378 7.00109 21.8369 6.95734 21.4437 6.87047V10.2247C19.3201 10.2247 17.3539 9.52085 15.7484 8.3245V17.0207C15.7484 21.371 12.3663 24.8973 8.19452 24.8973C6.63794 24.8973 5.19109 24.4067 3.98926 23.5651C5.36099 25.0276 7.27396 25.9348 9.39026 25.9348C13.5624 25.9348 16.9446 22.4085 16.9446 18.058V9.3619H16.9444ZM18.42 5.06275C17.5996 4.12828 17.061 2.92062 16.9444 1.58548V1.03741H15.811C16.0963 2.73432 17.0695 4.18404 18.42 5.06275ZM6.62788 20.2268C6.16957 19.6003 5.92182 18.8337 5.92294 18.0455C5.92294 16.0559 7.4699 14.4427 9.37848 14.4427C9.73411 14.4425 10.0876 14.4994 10.4267 14.6115V10.2549C10.0305 10.1983 9.63071 10.1742 9.2311 10.183V13.574C8.89193 13.4618 8.53821 13.4049 8.18241 13.4053C6.27391 13.4053 4.72703 15.0183 4.72703 17.0082C4.72703 18.4153 5.50021 19.6334 6.62788 20.2268Z" fill="#FF004F"/>
<path d="M15.7485 8.32441C17.3541 9.52077 19.3201 10.2246 21.4438 10.2246V6.87038C20.2583 6.60706 19.209 5.96119 18.42 5.06275C17.0695 4.18395 16.0964 2.73423 15.8111 1.03741H12.8339V18.0578C12.8271 20.0421 11.2828 21.6487 9.37839 21.6487C8.25622 21.6487 7.25917 21.0909 6.62778 20.2268C5.50028 19.6334 4.72702 18.4152 4.72702 17.0083C4.72702 15.0186 6.27389 13.4053 8.18239 13.4053C8.54806 13.4053 8.90049 13.4647 9.23109 13.5741V10.1831C5.13256 10.2714 1.83643 13.7633 1.83643 18.0579C1.83643 20.2017 2.65721 22.1452 3.98942 23.5652C5.19125 24.4067 6.63801 24.8975 8.19468 24.8975C12.3665 24.8975 15.7486 21.3709 15.7486 17.0207V8.3245L15.7485 8.32441Z" fill="black"/>
<path d="M21.4437 6.87028V5.9635C20.3747 5.96519 19.3269 5.65304 18.4199 5.06274C19.2227 5.9792 20.2799 6.6112 21.4437 6.87046V6.87028ZM15.8109 1.03731C15.7837 0.875179 15.7629 0.711961 15.7484 0.548062V0H11.6376V17.0206C11.6311 19.0047 10.0868 20.6113 8.18226 20.6113C7.64233 20.6121 7.10979 20.4804 6.62765 20.2269C7.25903 21.0909 8.25608 21.6486 9.37825 21.6486C11.2826 21.6486 12.8271 20.0421 12.8338 18.0579V1.0374H15.8109V1.03731ZM9.23121 10.183V9.21754C8.88771 9.16855 8.54141 9.14405 8.19472 9.1442C4.02245 9.1442 0.640381 12.6707 0.640381 17.0206C0.640381 19.7478 1.96958 22.1513 3.98945 23.5651C2.65725 22.1451 1.83646 20.2016 1.83646 18.0578C1.83646 13.7633 5.13251 10.2713 9.23121 10.183Z" fill="#00F2EA"/>
</g>
<defs>
<clipPath id="clip0_813_6">
<rect width="22" height="26" fill="white" transform="translate(0.640381)"/>
</clipPath>
</defs>
</svg>
