<svg width="137" height="127" viewBox="0 0 137 127" fill="none" xmlns="http://www.w3.org/2000/svg">
<path d="M130.048 0L76.6445 39.6638L86.5202 16.2627L130.048 0Z" fill="#E2761B"/>
<path d="M6.7645 0L59.7391 40.0396L50.3464 16.2627L6.7645 0ZM110.835 91.9407L96.6119 113.732L127.044 122.105L135.793 92.4237L110.835 91.9407ZM1.12891 92.4237L9.82382 122.105L40.256 113.732L26.0329 91.9407L1.12891 92.4237Z" fill="#E4761B"/>
<path d="M38.5388 55.1233L30.0586 67.951L60.2761 69.2928L59.2027 36.821L38.5388 55.1233ZM98.2761 55.1233L77.3439 36.4453L76.6462 69.2928L106.81 67.951L98.2761 55.1233ZM40.2563 113.733L58.3976 104.878L42.7253 92.6402L40.2563 113.733ZM78.4173 104.878L96.6123 113.733L94.0897 92.6402L78.4173 104.878Z" fill="#E4761B"/>
<path d="M96.6098 113.733L78.4149 104.877L79.8641 116.739L79.7031 121.73L96.6098 113.733ZM40.2539 113.733L57.1607 121.73L57.0533 116.739L58.3951 104.877L40.2539 113.733Z" fill="#D7C1B3"/>
<path d="M57.4325 84.8038L42.2969 80.349L52.9777 75.4648L57.4325 84.8038ZM79.3844 84.8038L83.8392 75.4648L94.5737 80.349L79.3844 84.8038Z" fill="#233447"/>
<path d="M40.2544 113.732L42.8307 91.9407L26.0312 92.4238L40.2544 113.732ZM94.0341 91.9407L96.6103 113.732L110.834 92.4238L94.0341 91.9407ZM106.808 67.9492L76.6442 69.291L79.4352 84.8023L83.89 75.4633L94.6245 80.3475L106.808 67.9492ZM42.294 80.3475L53.0284 75.4633L57.4296 84.8023L60.2742 69.291L30.0567 67.9492L42.294 80.3475Z" fill="#CD6116"/>
<path d="M30.0586 67.9492L42.7253 92.6385L42.2959 80.3475L30.0586 67.9492ZM94.6264 80.3475L94.0897 92.6385L106.81 67.9492L94.6264 80.3475ZM60.2761 69.291L57.4315 84.8023L60.9738 103.105L61.7789 79.0057L60.2761 69.291ZM76.6462 69.291L75.197 78.952L75.8411 103.105L79.4371 84.8023L76.6462 69.291Z" fill="#E4751F"/>
<path d="M79.4381 84.8025L75.8421 103.105L78.4183 104.876L94.0907 92.6386L94.6274 80.3477L79.4381 84.8025ZM42.2969 80.3477L42.7263 92.6386L58.3986 104.876L60.9748 103.105L57.4325 84.8025L42.2969 80.3477Z" fill="#F6851B"/>
<path d="M79.7031 121.73L79.8641 116.739L78.5223 115.557H58.2878L57.0533 116.739L57.1607 121.73L40.2539 113.733L46.1579 118.563L58.1268 126.882H78.6833L90.7059 118.563L96.6098 113.733L79.7031 121.73Z" fill="#C0AD9E"/>
<path d="M78.4163 104.877L75.84 103.105H60.9728L58.3965 104.877L57.0547 116.738L58.2891 115.557H78.5236L79.8654 116.738L78.4163 104.877Z" fill="#161616"/>
<path d="M132.302 42.2401L136.864 20.3418L130.048 0L78.4152 38.322L98.274 55.1215L126.345 63.3333L132.571 56.0876L129.887 54.1554L134.181 50.2373L130.853 47.661L135.147 44.387L132.302 42.2401ZM0 20.3418L4.56215 42.2401L1.66384 44.387L5.95763 47.661L2.68362 50.2373L6.9774 54.1554L4.29379 56.0876L10.4661 63.3333L38.5367 55.1215L58.3955 38.322L6.76271 0L0 20.3418Z" fill="#763D16"/>
<path d="M126.346 63.3343L98.2761 55.1233L106.81 67.9492L94.0897 92.6385L110.835 92.4247L135.793 92.4237L126.346 63.3343ZM38.5388 55.1233L10.4679 63.3343L1.12891 92.4237L26.0329 92.4247L42.7253 92.6385L30.0586 67.9492L38.5388 55.1233ZM76.6462 69.291L78.417 38.323L86.5752 16.2637L50.3464 16.2627L58.3973 38.323L60.2761 69.291L60.9199 79.0603L60.9738 103.105H75.8411L75.9481 79.0603L76.6462 69.291Z" fill="#F6851B"/>
</svg>
