<svg width="198" height="198" viewBox="0 0 198 198" fill="none" xmlns="http://www.w3.org/2000/svg">
<path d="M0 44.4H14.8C91.0889 44.4 152.933 106.244 152.933 182.533V197.333H182.533C190.707 197.333 197.333 190.707 197.333 182.533C197.333 81.723 115.61 0 14.8 0C6.62619 0 0 6.62619 0 14.8V44.4Z" fill="url(#paint0_radial_1918_74)"/>
<path d="M157.867 182.533H197.334C197.334 190.707 190.708 197.333 182.534 197.333H157.867V182.533Z" fill="url(#paint1_linear_1918_74)"/>
<path d="M14.8 0L14.8 39.4667H0L1.07821e-06 14.8C1.4355e-06 6.62619 6.62619 -3.57289e-07 14.8 0Z" fill="url(#paint2_linear_1918_74)"/>
<path d="M0 39.4668H14.8C93.8135 39.4668 157.867 103.52 157.867 182.533V197.333H113.467V182.533C113.467 128.041 69.2921 83.8668 14.8 83.8668H0V39.4668Z" fill="url(#paint3_radial_1918_74)"/>
<path d="M118.398 182.533H157.865V197.333H118.398V182.533Z" fill="url(#paint4_linear_1918_74)"/>
<path d="M1.72514e-06 78.9335L0 39.4668L14.8 39.4668L14.8 78.9335H1.72514e-06Z" fill="url(#paint5_linear_1918_74)"/>
<path d="M0 103.6C0 111.774 6.62619 118.4 14.8 118.4C50.2199 118.4 78.9333 147.114 78.9333 182.534C78.9333 190.707 85.5595 197.334 93.7333 197.334H118.4V182.534C118.4 125.317 72.0167 78.9336 14.8 78.9336H0V103.6Z" fill="url(#paint6_radial_1918_74)"/>
<path d="M78.9336 182.533H118.4V197.333H93.7336C85.5598 197.333 78.9336 190.707 78.9336 182.533Z" fill="url(#paint7_radial_1918_74)"/>
<path d="M14.8 118.4C6.62619 118.4 1.4355e-06 111.774 1.07821e-06 103.6L0 78.9336L14.8 78.9336L14.8 118.4Z" fill="url(#paint8_radial_1918_74)"/>
<defs>
<radialGradient id="paint0_radial_1918_74" cx="0" cy="0" r="1" gradientUnits="userSpaceOnUse" gradientTransform="translate(14.8 182.533) rotate(-90) scale(182.533)">
<stop offset="0.770277" stop-color="#FF4000"/>
<stop offset="1" stop-color="#8754C9"/>
</radialGradient>
<linearGradient id="paint1_linear_1918_74" x1="155.401" y1="189.933" x2="197.334" y2="189.933" gradientUnits="userSpaceOnUse">
<stop stop-color="#FF4000"/>
<stop offset="1" stop-color="#8754C9"/>
</linearGradient>
<linearGradient id="paint2_linear_1918_74" x1="7.40001" y1="-3.23454e-06" x2="7.39999" y2="41.9333" gradientUnits="userSpaceOnUse">
<stop stop-color="#8754C9"/>
<stop offset="1" stop-color="#FF4000"/>
</linearGradient>
<radialGradient id="paint3_radial_1918_74" cx="0" cy="0" r="1" gradientUnits="userSpaceOnUse" gradientTransform="translate(14.8 182.533) rotate(-90) scale(143.067)">
<stop offset="0.723929" stop-color="#FFF700"/>
<stop offset="1" stop-color="#FF9901"/>
</radialGradient>
<linearGradient id="paint4_linear_1918_74" x1="118.398" y1="189.933" x2="157.865" y2="189.933" gradientUnits="userSpaceOnUse">
<stop stop-color="#FFF700"/>
<stop offset="1" stop-color="#FF9901"/>
</linearGradient>
<linearGradient id="paint5_linear_1918_74" x1="7.40001" y1="78.9335" x2="7.4" y2="39.4668" gradientUnits="userSpaceOnUse">
<stop stop-color="#FFF700"/>
<stop offset="1" stop-color="#FF9901"/>
</linearGradient>
<radialGradient id="paint6_radial_1918_74" cx="0" cy="0" r="1" gradientUnits="userSpaceOnUse" gradientTransform="translate(14.8 182.534) rotate(-90) scale(103.6)">
<stop offset="0.59513" stop-color="#00AAFF"/>
<stop offset="1" stop-color="#01DA40"/>
</radialGradient>
<radialGradient id="paint7_radial_1918_74" cx="0" cy="0" r="1" gradientUnits="userSpaceOnUse" gradientTransform="translate(76.4669 189.933) scale(41.9333 111.822)">
<stop stop-color="#00AAFF"/>
<stop offset="1" stop-color="#01DA40"/>
</radialGradient>
<radialGradient id="paint8_radial_1918_74" cx="0" cy="0" r="1" gradientUnits="userSpaceOnUse" gradientTransform="translate(7.39999 120.867) rotate(-90) scale(41.9333 795.18)">
<stop stop-color="#00AAFF"/>
<stop offset="1" stop-color="#01DA40"/>
</radialGradient>
</defs>
</svg>
