<svg width="388" height="238" viewBox="0 0 388 238" fill="none" xmlns="http://www.w3.org/2000/svg">
<g clip-path="url(#clip0_1918_8)">
<path d="M79.4 46.3996C142.6 -15.5004 245.1 -15.5004 308.3 46.3996L315.9 53.7996C319.1 56.8996 319.1 61.8996 315.9 64.9996L289.9 90.4996C288.3 91.9996 285.8 91.9996 284.2 90.4996L273.7 80.1996C229.6 36.9996 158.1 36.9996 114 80.1996L102.8 91.1996C101.2 92.6996 98.7 92.6996 97.1 91.1996L71 65.7996C67.8 62.6996 67.8 57.6996 71 54.5996L79.4 46.3996ZM362.1 99.0996L385.3 121.8C388.5 124.9 388.5 129.9 385.3 133L280.8 235.3C277.6 238.4 272.5 238.4 269.4 235.3L195.3 162.7C194.5 161.9 193.2 161.9 192.4 162.7L118.3 235.3C115.1 238.4 110 238.4 106.9 235.3L2.4 133C-0.8 129.9 -0.8 124.9 2.4 121.8L25.6 99.0996C28.8 95.9996 33.9 95.9996 37 99.0996L111.1 171.7C111.9 172.5 113.2 172.5 114 171.7L188.1 99.0996C191.3 95.9996 196.4 95.9996 199.5 99.0996L273.6 171.7C274.4 172.5 275.7 172.5 276.5 171.7L350.6 99.0996C353.8 95.9996 358.9 95.9996 362.1 99.0996Z" fill="#F9F9F9"/>
</g>
<defs>
<clipPath id="clip0_1918_8">
<rect width="387.6" height="237.6" fill="white"/>
</clipPath>
</defs>
</svg>
