<svg width="33" height="33" viewBox="0 0 33 33" fill="none" xmlns="http://www.w3.org/2000/svg">
<path fill-rule="evenodd" clip-rule="evenodd" d="M3.32224 14.8788C3.993 8.81099 8.8109 3.99309 14.8787 3.32233V0.333344H17.7878V3.32233C23.8556 3.99309 28.6735 8.81099 29.3443 14.8788H32.3333V17.7879H29.3443C28.6735 23.8557 23.8556 28.6736 17.7878 29.3444V32.3333H14.8787V29.3444C8.8109 28.6736 3.993 23.8557 3.32224 17.7879H0.333252V14.8788H3.32224ZM6.25455 14.8788H9.06052V17.7879H6.25455C6.89238 22.2471 10.4195 25.7742 14.8787 26.4121V23.6061H17.7878V26.4121C22.247 25.7742 25.7741 22.2471 26.412 17.7879H23.606V14.8788H26.412C25.7741 10.4196 22.247 6.89247 17.7878 6.25464V9.06062H14.8787V6.25464C10.4195 6.89247 6.89238 10.4196 6.25455 14.8788ZM16.3333 19.2424C14.7266 19.2424 13.4242 17.94 13.4242 16.3333C13.4242 14.7267 14.7266 13.4243 16.3333 13.4243C17.9399 13.4243 19.2423 14.7267 19.2423 16.3333C19.2423 17.94 17.9399 19.2424 16.3333 19.2424Z" fill="white"/>
</svg>
