<svg width="890" height="505" viewBox="0 0 890 505" fill="none" xmlns="http://www.w3.org/2000/svg">
<rect width="890" height="505" fill="#59B56D"/>
<g clip-path="url(#clip0_1408_1594)">
<mask id="mask0_1408_1594" style="mask-type:luminance" maskUnits="userSpaceOnUse" x="221" y="205" width="448" height="95">
<path d="M669 205H221V300H669V205Z" fill="white"/>
</mask>
<g mask="url(#mask0_1408_1594)">
<path d="M597.34 229.392C593.474 229.392 590.348 230.307 587.772 232.412H587.127V211.453H577.1V275.608H586.942L587.127 248.335C587.127 243.394 591.449 239.364 596.235 239.364C601.296 239.364 605.342 243.39 605.342 248.335V275.608H615.185V248.335C615.185 237.901 606.722 229.392 597.34 229.392ZM645.177 267.189C637.265 267.189 630.734 260.964 630.734 253.003C630.734 245.041 637.265 238.727 645.177 238.727C653.089 238.727 659.436 244.951 659.436 253.003C659.436 261.055 653.18 267.189 645.177 267.189ZM645.177 229.208C632.023 229.208 621.26 239.916 621.26 253.003C621.26 266.09 631.563 276.708 644.442 276.708C650.238 276.708 655.94 274.693 660.081 270.393H660.726V275.608H669.004V253.003C669.004 239.916 658.241 229.208 645.177 229.208ZM461.471 267.189C453.559 267.189 447.027 260.964 447.027 253.003C447.027 245.041 453.559 238.727 461.471 238.727C469.383 238.727 475.73 244.951 475.73 253.003C475.73 261.055 469.473 267.189 461.471 267.189ZM507.374 239.822H516.572V229.846H507.374V215.021H497.346V229.849H490.079V239.826H497.346V257.4C497.346 266.093 503.968 276.712 516.572 276.712V266.735C507.555 266.735 507.374 257.584 507.374 257.584V239.83V239.822ZM411.612 229.388C406.091 229.388 400.939 231.767 397.722 235.886H397.172C393.951 231.767 388.8 229.388 383.373 229.388C372.885 229.388 364.238 237.901 364.238 248.332V275.605H374.171V248.335C374.171 243.394 378.218 239.364 383.369 239.364C388.521 239.364 392.567 243.39 392.567 248.335V275.608H402.5V248.335C402.5 243.394 406.547 239.364 411.608 239.364C416.669 239.364 420.9 243.39 420.9 248.335V275.608H430.743V248.335C430.743 237.901 422.186 229.392 411.608 229.392L411.612 229.388ZM461.471 229.204C448.317 229.204 437.554 239.912 437.554 252.999C437.554 266.086 447.857 276.704 460.735 276.704C466.532 276.704 472.234 274.689 476.465 270.389H477.11V275.605H485.297V252.999C485.297 239.728 474.534 229.204 461.471 229.204ZM547.024 266.728C539.297 266.728 532.95 260.687 532.95 252.999C532.95 245.311 539.297 239.181 547.024 239.181C552.545 239.181 557.327 242.385 559.628 246.958H570.021C567.445 236.708 558.063 229.204 547.024 229.204C533.685 229.204 523.013 239.912 523.013 252.999C523.013 266.086 533.685 276.704 547.024 276.704C558.063 276.704 567.445 268.926 570.021 258.676H559.628C557.327 263.527 552.545 266.731 547.024 266.731V266.728Z" fill="white"/>
<path d="M291.51 216.023C291.329 216.384 290.896 216.537 290.526 216.372C285.031 213.885 278.352 213.044 273.963 213.044C258.18 213.044 242.394 220.702 242.394 233.29C242.394 240.04 247.481 245.75 254.918 245.75C263.136 245.75 269.268 239.781 274.223 234.329C278.658 229.399 283.877 223.948 291.31 223.948C299.4 223.948 305.268 229.917 305.268 237.965C305.268 250.684 289.874 264.96 268.611 264.96C247.349 264.96 231.959 253.667 231.959 237.965C231.959 223.298 249.439 210.061 268.615 210.061C278.401 210.061 285.77 212.102 291.193 215.029C291.552 215.224 291.691 215.663 291.51 216.027V216.023ZM268.615 205C242.394 205 221 226.285 221 252.372C221 278.46 242.394 300.004 268.615 300.004C294.836 300.004 316.491 278.719 316.491 252.372C316.491 226.026 295.093 205 268.615 205Z" fill="white"/>
</g>
</g>
<defs>
<clipPath id="clip0_1408_1594">
<rect width="448" height="95" fill="white" transform="translate(221 205)"/>
</clipPath>
</defs>
</svg>
