<svg width="448" height="95" viewBox="0 0 448 95" fill="none" xmlns="http://www.w3.org/2000/svg">
<g clip-path="url(#clip0_1408_1595)">
<mask id="mask0_1408_1595" style="mask-type:luminance" maskUnits="userSpaceOnUse" x="0" y="0" width="448" height="95">
<path d="M448 0H0V95H448V0Z" fill="white"/>
</mask>
<g mask="url(#mask0_1408_1595)">
<path d="M376.34 24.3916C372.474 24.3916 369.348 25.307 366.772 27.4119H366.127V6.45337H356.1V70.6084H365.942L366.127 43.3353C366.127 38.3939 370.449 34.3643 375.235 34.3643C380.296 34.3643 384.342 38.3902 384.342 43.3353V70.6084H394.185V43.3353C394.185 32.901 385.722 24.3916 376.34 24.3916ZM424.177 62.189C416.265 62.189 409.734 55.9644 409.734 48.0027C409.734 40.041 416.265 33.7265 424.177 33.7265C432.089 33.7265 438.436 39.951 438.436 48.0027C438.436 56.0545 432.18 62.189 424.177 62.189ZM424.177 24.2077C411.023 24.2077 400.26 34.9159 400.26 48.0027C400.26 61.0896 410.563 71.7077 423.442 71.7077C429.238 71.7077 434.94 69.6929 439.081 65.3931H439.726V70.6084H448.004V48.0027C448.004 34.9159 437.241 24.2077 424.177 24.2077ZM240.471 62.189C232.559 62.189 226.027 55.9644 226.027 48.0027C226.027 40.041 232.559 33.7265 240.471 33.7265C248.383 33.7265 254.73 39.951 254.73 48.0027C254.73 56.0545 248.473 62.189 240.471 62.189ZM286.374 34.8221H295.572V24.8456H286.374V10.0215H276.346V24.8493H269.079V34.8258H276.346V52.4001C276.346 61.0934 282.968 71.7115 295.572 71.7115V61.735C286.555 61.735 286.374 52.5839 286.374 52.5839V34.8296V34.8221ZM190.612 24.3878C185.091 24.3878 179.939 26.7666 176.722 30.8862H176.172C172.951 26.7666 167.8 24.3878 162.373 24.3878C151.885 24.3878 143.238 32.901 143.238 43.3315V70.6046H153.171V43.3353C153.171 38.3939 157.218 34.3643 162.369 34.3643C167.521 34.3643 171.567 38.3902 171.567 43.3353V70.6084H181.5V43.3353C181.5 38.3939 185.547 34.3643 190.608 34.3643C195.669 34.3643 199.9 38.3902 199.9 43.3353V70.6084H209.743V43.3353C209.743 32.901 201.186 24.3916 190.608 24.3916L190.612 24.3878ZM240.471 24.204C227.317 24.204 216.554 34.9121 216.554 47.999C216.554 61.0859 226.857 71.704 239.735 71.704C245.532 71.704 251.234 69.6892 255.465 65.3894H256.11V70.6046H264.297V47.999C264.297 34.7283 253.534 24.204 240.471 24.204ZM326.024 61.7275C318.297 61.7275 311.95 55.6868 311.95 47.999C311.95 40.3112 318.297 34.1805 326.024 34.1805C331.545 34.1805 336.327 37.3847 338.628 41.9583H349.021C346.445 31.7079 337.063 24.204 326.024 24.204C312.685 24.204 302.013 34.9121 302.013 47.999C302.013 61.0859 312.685 71.704 326.024 71.704C337.063 71.704 346.445 63.9261 349.021 53.6757H338.628C336.327 58.527 331.545 61.7312 326.024 61.7312V61.7275Z" fill="white"/>
<path d="M70.5102 11.0233C70.3292 11.3835 69.8955 11.5373 69.5259 11.3722C64.0312 8.88468 57.3525 8.04423 52.9628 8.04423C37.1803 8.04423 21.394 15.702 21.394 28.2899C21.394 35.0397 26.4814 40.7502 33.9182 40.7502C42.1356 40.7502 48.2676 34.7808 53.223 29.3292C57.6579 24.3991 62.8773 18.9475 70.3103 18.9475C78.3995 18.9475 84.2675 24.9169 84.2675 32.9649C84.2675 45.684 68.8735 59.9603 47.6114 59.9603C26.3494 59.9603 10.9591 48.6669 10.9591 32.9649C10.9591 18.2984 28.4386 5.06141 47.6152 5.06141C57.4015 5.06141 64.7704 7.10249 70.1934 10.029C70.5517 10.2241 70.6912 10.6631 70.5102 11.0271V11.0233ZM47.6152 0C21.394 0 0 21.285 0 47.3724C0 73.4599 21.394 95.0038 47.6152 95.0038C73.8364 95.0038 95.4906 73.7188 95.4906 47.3724C95.4906 21.0261 74.0928 0 47.6152 0Z" fill="white"/>
</g>
</g>
<defs>
<clipPath id="clip0_1408_1595">
<rect width="448" height="95" fill="white"/>
</clipPath>
</defs>
</svg>
