<svg width="71" height="71" viewBox="0 0 71 71" fill="none" xmlns="http://www.w3.org/2000/svg">
<path fill-rule="evenodd" clip-rule="evenodd" d="M35.4497 70.1082C54.7797 70.1082 70.4497 54.4381 70.4497 35.1082C70.4497 15.7782 54.7797 0.108154 35.4497 0.108154C16.1197 0.108154 0.449707 15.7782 0.449707 35.1082C0.449707 54.4381 16.1197 70.1082 35.4497 70.1082ZM35.4497 57.6082C47.8761 57.6082 57.9497 47.5346 57.9497 35.1082C57.9497 22.6817 47.8761 12.6082 35.4497 12.6082C23.0233 12.6082 12.9497 22.6817 12.9497 35.1082C12.9497 47.5346 23.0233 57.6082 35.4497 57.6082Z" fill="#EBEBEB"/>
<path fill-rule="evenodd" clip-rule="evenodd" d="M70.4497 35.1082C70.4497 54.4381 54.7797 70.1082 35.4497 70.1082C16.1197 70.1082 0.449707 54.4381 0.449707 35.1082C0.449707 15.7782 16.1197 0.108154 35.4497 0.108154V12.6082C23.0233 12.6082 12.9497 22.6817 12.9497 35.1082C12.9497 47.5346 23.0233 57.6082 35.4497 57.6082C47.8761 57.6082 57.9497 47.5346 57.9497 35.1082H70.4497Z" fill="black"/>
</svg>
